<svg xmlns="http://www.w3.org/2000/svg" width="1080" height="1080" viewBox="0 0 1080 1080" role="img" aria-labelledby="title desc">
  <title id="title">منصة العقارات الأردنية - علم الأردن الكامل</title>
  <desc id="desc">شعار أيقوني مخصص لصورة صفحة فيسبوك مع علم الأردن الكامل وخانة عقارية.</desc>
  <defs>
    <clipPath id="flagCircle">
      <circle cx="540" cy="540" r="420"/>
    </clipPath>
  </defs>
  <rect width="1080" height="1080" fill="#F7F3EA"/>
  <circle cx="540" cy="540" r="434" fill="#1F2926"/>
  <g clip-path="url(#flagCircle)">
    <rect x="120" y="120" width="840" height="280" fill="#111816"/>
    <rect x="120" y="400" width="840" height="280" fill="#F7F3EA"/>
    <rect x="120" y="680" width="840" height="280" fill="#16804E"/>
    <path d="M120 120 L493 540 L120 960 Z" fill="#C8192E"/>
    <polygon points="265,494 272.8,523.8 301,511.3 282.5,536 309.8,550.2 279.1,551.2 285,581.4 265,558 245,581.4 250.9,551.2 220.2,550.2 247.5,536 229,511.3 257.2,523.8" fill="#F7F3EA"/>
  </g>
  <circle cx="540" cy="540" r="420" fill="none" stroke="#1F2926" stroke-width="16"/>
  <path d="M286 542 L540 338 L794 542 L735 542 L735 748 L345 748 L345 542 Z" fill="#F7F3EA" stroke="#1F2926" stroke-width="18" stroke-linejoin="round"/>
  <path d="M286 542 L540 338 L794 542 L733 542 L540 388 L347 542 Z" fill="#C8192E" stroke="#1F2926" stroke-width="10" stroke-linejoin="round"/>
  <rect x="405" y="548" width="270" height="180" fill="#1F2926"/>
  <rect x="438" y="582" width="65" height="65" rx="10" fill="#F7F3EA"/>
  <rect x="509" y="582" width="65" height="65" rx="10" fill="#F7F3EA"/>
  <rect x="580" y="582" width="65" height="65" rx="10" fill="#F7F3EA"/>
  <rect x="438" y="656" width="65" height="65" rx="10" fill="#F7F3EA"/>
  <rect x="532" y="656" width="113" height="65" fill="#F7F3EA"/>
  <path d="M540 892 C468 822 432 764 432 702 C432 641 479 594 540 594 C601 594 648 641 648 702 C648 764 612 822 540 892 Z" fill="#C8192E" stroke="#1F2926" stroke-width="10" stroke-linejoin="round"/>
  <circle cx="540" cy="700" r="44" fill="#F7F3EA"/>
  <circle cx="452" cy="690" r="40" fill="#16804E" stroke="#1F2926" stroke-width="8"/>
  <circle cx="452" cy="690" r="17" fill="#F7F3EA"/>
</svg>
